<svg data-v-423bf9ae="" xmlns="http://www.w3.org/2000/svg" viewBox="0 0 446 90" class="iconLeft"><!----><!----><!----><g data-v-423bf9ae="" id="f956a308-d61e-4c77-b893-7e5603d27ded" fill="white" transform="matrix(4.065040587370328,0,0,4.065040587370328,107.0012445973029,4.065041064207492)"><path d="M6.25 11.58L6.25 7.64L6.25 7.64Q5.74 7.42 5.34 7.36L5.34 7.36L5.34 7.36Q4.94 7.30 4.68 7.30L4.68 7.30L4.68 7.30Q4.07 7.30 3.59 7.50L3.59 7.50L3.59 7.50Q3.12 7.70 2.79 8.07L2.79 8.07L2.79 8.07Q2.46 8.43 2.29 8.93L2.29 8.93L2.29 8.93Q2.12 9.44 2.12 10.05L2.12 10.05L2.12 10.05Q2.12 10.58 2.26 11.06L2.26 11.06L2.26 11.06Q2.41 11.54 2.67 11.90L2.67 11.90L2.67 11.90Q2.94 12.26 3.32 12.48L3.32 12.48L3.32 12.48Q3.69 12.69 4.16 12.69L4.16 12.69L4.16 12.69Q4.71 12.69 5.23 12.39L5.23 12.39L5.23 12.39Q5.76 12.09 6.25 11.58L6.25 11.58ZM6.25 6.44L6.25 2.69L7.55 2.69L7.55 13.64L6.54 13.64L6.33 12.39L6.33 12.39Q6.10 12.61 5.81 12.85L5.81 12.85L5.81 12.85Q5.52 13.09 5.17 13.30L5.17 13.30L5.17 13.30Q4.83 13.51 4.42 13.64L4.42 13.64L4.42 13.64Q4.01 13.78 3.55 13.78L3.55 13.78L3.55 13.78Q2.90 13.78 2.38 13.49L2.38 13.49L2.38 13.49Q1.86 13.20 1.50 12.72L1.50 12.72L1.50 12.72Q1.13 12.24 0.94 11.61L0.94 11.61L0.94 11.61Q0.75 10.99 0.75 10.32L0.75 10.32L0.75 10.32Q0.75 9.44 1.07 8.70L1.07 8.70L1.07 8.70Q1.39 7.95 1.94 7.41L1.94 7.41L1.94 7.41Q2.50 6.87 3.24 6.57L3.24 6.57L3.24 6.57Q3.99 6.26 4.84 6.26L4.84 6.26L4.84 6.26Q5.25 6.26 5.61 6.32L5.61 6.32L5.61 6.32Q5.97 6.38 6.25 6.44L6.25 6.44ZM15.67 12.29L15.67 13.03L15.67 13.03Q15.41 13.21 15.07 13.35L15.07 13.35L15.07 13.35Q14.73 13.49 14.37 13.59L14.37 13.59L14.37 13.59Q14.01 13.69 13.64 13.73L13.64 13.73L13.64 13.73Q13.28 13.78 12.96 13.78L12.96 13.78L12.96 13.78Q12.26 13.78 11.63 13.55L11.63 13.55L11.63 13.55Q11.01 13.32 10.53 12.87L10.53 12.87L10.53 12.87Q10.06 12.41 9.78 11.75L9.78 11.75L9.78 11.75Q9.50 11.08 9.50 10.21L9.50 10.21L9.50 10.21Q9.50 9.32 9.80 8.59L9.80 8.59L9.80 8.59Q10.10 7.85 10.60 7.34L10.60 7.34L10.60 7.34Q11.09 6.82 11.75 6.54L11.75 6.54L11.75 6.54Q12.40 6.26 13.12 6.26L13.12 6.26L13.12 6.26Q13.70 6.26 14.20 6.46L14.20 6.46L14.20 6.46Q14.70 6.65 15.08 7.04L15.08 7.04L15.08 7.04Q15.45 7.43 15.66 8.02L15.66 8.02L15.66 8.02Q15.87 8.60 15.87 9.38L15.87 9.38L15.87 9.38Q15.87 9.54 15.86 9.75L15.86 9.75L15.86 9.75Q15.85 9.97 15.80 10.21L15.80 10.21L10.86 10.21L10.86 10.21Q10.86 10.80 11.06 11.26L11.06 11.26L11.06 11.26Q11.27 11.72 11.65 12.04L11.65 12.04L11.65 12.04Q12.03 12.36 12.56 12.52L12.56 12.52L12.56 12.52Q13.08 12.69 13.72 12.69L13.72 12.69L13.72 12.69Q13.88 12.69 14.10 12.67L14.10 12.67L14.10 12.67Q14.33 12.66 14.59 12.62L14.59 12.62L14.59 12.62Q14.85 12.58 15.13 12.50L15.13 12.50L15.13 12.50Q15.41 12.42 15.67 12.29L15.67 12.29ZM10.86 9.41L14.64 9.41L14.64 9.41Q14.64 8.89 14.50 8.50L14.50 8.50L14.50 8.50Q14.36 8.11 14.11 7.84L14.11 7.84L14.11 7.84Q13.86 7.57 13.54 7.44L13.54 7.44L13.54 7.44Q13.21 7.30 12.84 7.30L12.84 7.30L12.84 7.30Q12.43 7.30 12.07 7.47L12.07 7.47L12.07 7.47Q11.71 7.64 11.44 7.92L11.44 7.92L11.44 7.92Q11.17 8.21 11.01 8.59L11.01 8.59L11.01 8.59Q10.86 8.98 10.86 9.41L10.86 9.41ZM21.49 14.05L19.80 14.05L19.80 14.05Q19.62 14.14 19.42 14.27L19.42 14.27L19.42 14.27Q19.22 14.40 19.04 14.56L19.04 14.56L19.04 14.56Q18.87 14.72 18.76 14.92L18.76 14.92L18.76 14.92Q18.64 15.11 18.64 15.33L18.64 15.33L18.64 15.33Q18.64 15.54 18.77 15.74L18.77 15.74L18.77 15.74Q18.91 15.93 19.16 16.08L19.16 16.08L19.16 16.08Q19.42 16.22 19.80 16.31L19.80 16.31L19.80 16.31Q20.17 16.39 20.66 16.39L20.66 16.39L20.66 16.39Q21.21 16.39 21.65 16.28L21.65 16.28L21.65 16.28Q22.09 16.17 22.39 15.98L22.39 15.98L22.39 15.98Q22.69 15.79 22.85 15.54L22.85 15.54L22.85 15.54Q23.00 15.29 23.00 15.01L23.00 15.01L23.00 15.01Q23.00 14.76 22.88 14.58L22.88 14.58L22.88 14.58Q22.76 14.40 22.55 14.28L22.55 14.28L22.55 14.28Q22.34 14.16 22.06 14.11L22.06 14.11L22.06 14.11Q21.79 14.05 21.49 14.05L21.49 14.05ZM18.86 13.92L18.86 13.92L18.86 13.92Q18.65 13.85 18.46 13.75L18.46 13.75L18.46 13.75Q18.28 13.64 18.14 13.52L18.14 13.52L18.14 13.52Q18.01 13.39 17.93 13.23L17.93 13.23L17.93 13.23Q17.85 13.07 17.85 12.89L17.85 12.89L17.85 12.89Q17.85 12.66 17.96 12.46L17.96 12.46L17.96 12.46Q18.07 12.26 18.26 12.07L18.26 12.07L18.26 12.07Q18.44 11.88 18.67 11.71L18.67 11.71L18.67 11.71Q18.89 11.55 19.13 11.39L19.13 11.39L19.13 11.39Q18.38 11.02 18.02 10.42L18.02 10.42L18.02 10.42Q17.67 9.82 17.67 9.11L17.67 9.11L17.67 9.11Q17.67 8.67 17.80 8.29L17.80 8.29L17.80 8.29Q17.92 7.91 18.15 7.59L18.15 7.59L18.15 7.59Q18.38 7.27 18.68 7.03L18.68 7.03L18.68 7.03Q18.98 6.78 19.33 6.61L19.33 6.61L19.33 6.61Q19.67 6.44 20.05 6.35L20.05 6.35L20.05 6.35Q20.43 6.26 20.81 6.26L20.81 6.26L20.81 6.26Q21.26 6.26 21.68 6.38L21.68 6.38L21.68 6.38Q22.11 6.49 22.39 6.68L22.39 6.68L22.39 6.68Q22.50 6.62 22.66 6.56L22.66 6.56L22.66 6.56Q22.83 6.51 23.00 6.47L23.00 6.47L23.00 6.47Q23.18 6.44 23.36 6.42L23.36 6.42L23.36 6.42Q23.54 6.40 23.70 6.40L23.70 6.40L24.93 6.40L24.66 7.42L23.04 7.42L23.04 7.42Q23.09 7.45 23.18 7.58L23.18 7.58L23.18 7.58Q23.28 7.70 23.37 7.91L23.37 7.91L23.37 7.91Q23.46 8.11 23.53 8.37L23.53 8.37L23.53 8.37Q23.60 8.64 23.60 8.94L23.60 8.94L23.60 8.94Q23.60 9.50 23.34 9.98L23.34 9.98L23.34 9.98Q23.08 10.47 22.65 10.83L22.65 10.83L22.65 10.83Q22.22 11.20 21.67 11.41L21.67 11.41L21.67 11.41Q21.12 11.62 20.55 11.62L20.55 11.62L20.55 11.62Q20.40 11.62 20.25 11.61L20.25 11.61L20.25 11.61Q20.10 11.59 19.93 11.57L19.93 11.57L19.93 11.57Q19.80 11.65 19.66 11.74L19.66 11.74L19.66 11.74Q19.52 11.84 19.41 11.95L19.41 11.95L19.41 11.95Q19.30 12.07 19.22 12.19L19.22 12.19L19.22 12.19Q19.15 12.32 19.15 12.46L19.15 12.46L19.15 12.46Q19.15 12.67 19.35 12.81L19.35 12.81L19.35 12.81Q19.55 12.95 19.90 12.95L19.90 12.95L21.83 12.95L21.83 12.95Q22.33 12.95 22.76 13.07L22.76 13.07L22.76 13.07Q23.20 13.20 23.53 13.44L23.53 13.44L23.53 13.44Q23.85 13.67 24.04 14L24.04 14L24.04 14Q24.23 14.33 24.23 14.72L24.23 14.72L24.23 14.72Q24.23 15.19 23.97 15.67L23.97 15.67L23.97 15.67Q23.70 16.15 23.19 16.55L23.19 16.55L23.19 16.55Q22.69 16.95 21.95 17.20L21.95 17.20L21.95 17.20Q21.22 17.45 20.28 17.45L20.28 17.45L20.28 17.45Q19.65 17.45 19.12 17.33L19.12 17.33L19.12 17.33Q18.58 17.21 18.19 17.00L18.19 17.00L18.19 17.00Q17.79 16.79 17.57 16.49L17.57 16.49L17.57 16.49Q17.34 16.19 17.34 15.82L17.34 15.82L17.34 15.82Q17.34 15.59 17.43 15.38L17.43 15.38L17.43 15.38Q17.51 15.17 17.65 14.98L17.65 14.98L17.65 14.98Q17.78 14.80 17.95 14.64L17.95 14.64L17.95 14.64Q18.12 14.47 18.28 14.34L18.28 14.34L18.28 14.34Q18.45 14.21 18.60 14.10L18.60 14.10L18.60 14.10Q18.76 13.99 18.86 13.92ZM18.90 8.90L18.90 8.90L18.90 8.90Q18.90 9.27 19.03 9.59L19.03 9.59L19.03 9.59Q19.16 9.91 19.39 10.15L19.39 10.15L19.39 10.15Q19.62 10.38 19.94 10.52L19.94 10.52L19.94 10.52Q20.26 10.65 20.64 10.65L20.64 10.65L20.64 10.65Q21.01 10.65 21.32 10.53L21.32 10.53L21.32 10.53Q21.64 10.40 21.87 10.19L21.87 10.19L21.87 10.19Q22.11 9.97 22.24 9.66L22.24 9.66L22.24 9.66Q22.37 9.34 22.37 8.96L22.37 8.96L22.37 8.96Q22.37 8.59 22.24 8.27L22.24 8.27L22.24 8.27Q22.11 7.96 21.88 7.73L21.88 7.73L21.88 7.73Q21.65 7.50 21.33 7.37L21.33 7.37L21.33 7.37Q21.01 7.23 20.62 7.23L20.62 7.23L20.62 7.23Q20.26 7.23 19.95 7.35L19.95 7.35L19.95 7.35Q19.64 7.47 19.40 7.69L19.40 7.69L19.40 7.69Q19.17 7.90 19.03 8.21L19.03 8.21L19.03 8.21Q18.90 8.52 18.90 8.90ZM31.84 12.29L31.84 13.03L31.84 13.03Q31.58 13.21 31.24 13.35L31.24 13.35L31.24 13.35Q30.91 13.49 30.54 13.59L30.54 13.59L30.54 13.59Q30.18 13.69 29.81 13.73L29.81 13.73L29.81 13.73Q29.45 13.78 29.13 13.78L29.13 13.78L29.13 13.78Q28.44 13.78 27.81 13.55L27.81 13.55L27.81 13.55Q27.18 13.32 26.71 12.87L26.71 12.87L26.71 12.87Q26.24 12.41 25.96 11.75L25.96 11.75L25.96 11.75Q25.68 11.08 25.68 10.21L25.68 10.21L25.68 10.21Q25.68 9.32 25.97 8.59L25.97 8.59L25.97 8.59Q26.27 7.85 26.77 7.34L26.77 7.34L26.77 7.34Q27.27 6.82 27.92 6.54L27.92 6.54L27.92 6.54Q28.57 6.26 29.29 6.26L29.29 6.26L29.29 6.26Q29.87 6.26 30.38 6.46L30.38 6.46L30.38 6.46Q30.88 6.65 31.25 7.04L31.25 7.04L31.25 7.04Q31.62 7.43 31.83 8.02L31.83 8.02L31.83 8.02Q32.05 8.60 32.05 9.38L32.05 9.38L32.05 9.38Q32.05 9.54 32.03 9.75L32.03 9.75L32.03 9.75Q32.02 9.97 31.98 10.21L31.98 10.21L27.03 10.21L27.03 10.21Q27.03 10.80 27.24 11.26L27.24 11.26L27.24 11.26Q27.45 11.72 27.83 12.04L27.83 12.04L27.83 12.04Q28.21 12.36 28.73 12.52L28.73 12.52L28.73 12.52Q29.26 12.69 29.89 12.69L29.89 12.69L29.89 12.69Q30.05 12.69 30.28 12.67L30.28 12.67L30.28 12.67Q30.50 12.66 30.76 12.62L30.76 12.62L30.76 12.62Q31.02 12.58 31.30 12.50L31.30 12.50L31.30 12.50Q31.58 12.42 31.84 12.29L31.84 12.29ZM27.03 9.41L30.82 9.41L30.82 9.41Q30.82 8.89 30.67 8.50L30.67 8.50L30.67 8.50Q30.53 8.11 30.28 7.84L30.28 7.84L30.28 7.84Q30.04 7.57 29.71 7.44L29.71 7.44L29.71 7.44Q29.39 7.30 29.02 7.30L29.02 7.30L29.02 7.30Q28.61 7.30 28.25 7.47L28.25 7.47L28.25 7.47Q27.88 7.64 27.61 7.92L27.61 7.92L27.61 7.92Q27.34 8.21 27.19 8.59L27.19 8.59L27.19 8.59Q27.03 8.98 27.03 9.41L27.03 9.41ZM34.07 13.64L34.07 6.40L35.08 6.40L35.29 7.66L35.29 7.66Q35.53 7.43 35.83 7.18L35.83 7.18L35.83 7.18Q36.14 6.94 36.50 6.73L36.50 6.73L36.50 6.73Q36.86 6.53 37.26 6.40L37.26 6.40L37.26 6.40Q37.67 6.26 38.09 6.26L38.09 6.26L38.09 6.26Q38.59 6.26 38.99 6.45L38.99 6.45L38.99 6.45Q39.39 6.64 39.67 6.99L39.67 6.99L39.67 6.99Q39.96 7.33 40.11 7.81L40.11 7.81L40.11 7.81Q40.26 8.29 40.26 8.85L40.26 8.85L40.26 13.64L38.96 13.64L38.96 8.97L38.96 8.97Q38.96 8.57 38.85 8.27L38.85 8.27L38.85 8.27Q38.74 7.96 38.54 7.76L38.54 7.76L38.54 7.76Q38.34 7.56 38.07 7.46L38.07 7.46L38.07 7.46Q37.80 7.36 37.47 7.36L37.47 7.36L37.47 7.36Q36.91 7.36 36.40 7.66L36.40 7.66L36.40 7.66Q35.90 7.96 35.37 8.45L35.37 8.45L35.37 13.64L34.07 13.64ZM48.38 12.29L48.38 13.03L48.38 13.03Q48.13 13.21 47.79 13.35L47.79 13.35L47.79 13.35Q47.45 13.49 47.09 13.59L47.09 13.59L47.09 13.59Q46.72 13.69 46.36 13.73L46.36 13.73L46.36 13.73Q45.99 13.78 45.68 13.78L45.68 13.78L45.68 13.78Q44.98 13.78 44.35 13.55L44.35 13.55L44.35 13.55Q43.72 13.32 43.25 12.87L43.25 12.87L43.25 12.87Q42.78 12.41 42.50 11.75L42.50 11.75L42.50 11.75Q42.22 11.08 42.22 10.21L42.22 10.21L42.22 10.21Q42.22 9.32 42.52 8.59L42.52 8.59L42.52 8.59Q42.81 7.85 43.31 7.34L43.31 7.34L43.31 7.34Q43.81 6.82 44.46 6.54L44.46 6.54L44.46 6.54Q45.12 6.26 45.83 6.26L45.83 6.26L45.83 6.26Q46.42 6.26 46.92 6.46L46.92 6.46L46.92 6.46Q47.42 6.65 47.79 7.04L47.79 7.04L47.79 7.04Q48.17 7.43 48.38 8.02L48.38 8.02L48.38 8.02Q48.59 8.60 48.59 9.38L48.59 9.38L48.59 9.38Q48.59 9.54 48.58 9.75L48.58 9.75L48.58 9.75Q48.56 9.97 48.52 10.21L48.52 10.21L43.57 10.21L43.57 10.21Q43.57 10.80 43.78 11.26L43.78 11.26L43.78 11.26Q43.99 11.72 44.37 12.04L44.37 12.04L44.37 12.04Q44.75 12.36 45.27 12.52L45.27 12.52L45.27 12.52Q45.80 12.69 46.44 12.69L46.44 12.69L46.44 12.69Q46.59 12.69 46.82 12.67L46.82 12.67L46.82 12.67Q47.04 12.66 47.30 12.62L47.30 12.62L47.30 12.62Q47.56 12.58 47.84 12.50L47.84 12.50L47.84 12.50Q48.13 12.42 48.38 12.29L48.38 12.29ZM43.57 9.41L47.36 9.41L47.36 9.41Q47.36 8.89 47.22 8.50L47.22 8.50L47.22 8.50Q47.07 8.11 46.83 7.84L46.83 7.84L46.83 7.84Q46.58 7.57 46.26 7.44L46.26 7.44L46.26 7.44Q45.93 7.30 45.56 7.30L45.56 7.30L45.56 7.30Q45.15 7.30 44.79 7.47L44.79 7.47L44.79 7.47Q44.43 7.64 44.16 7.92L44.16 7.92L44.16 7.92Q43.89 8.21 43.73 8.59L43.73 8.59L43.73 8.59Q43.57 8.98 43.57 9.41L43.57 9.41ZM50.61 13.64L50.61 6.40L51.63 6.40L51.83 8.57L51.83 8.57Q51.92 8.40 52.02 8.22L52.02 8.22L52.02 8.22Q52.12 8.04 52.22 7.87L52.22 7.87L52.22 7.87Q52.32 7.70 52.41 7.55L52.41 7.55L52.41 7.55Q52.51 7.40 52.58 7.29L52.58 7.29L52.58 7.29Q52.73 7.08 52.92 6.89L52.92 6.89L52.92 6.89Q53.11 6.70 53.33 6.56L53.33 6.56L53.33 6.56Q53.55 6.42 53.79 6.34L53.79 6.34L53.79 6.34Q54.04 6.26 54.32 6.26L54.32 6.26L54.32 6.26Q54.52 6.26 54.69 6.31L54.69 6.31L54.69 6.31Q54.87 6.35 54.99 6.45L54.99 6.45L54.85 7.67L54.85 7.67Q54.73 7.64 54.61 7.63L54.61 7.63L54.61 7.63Q54.49 7.62 54.37 7.62L54.37 7.62L54.37 7.62Q53.89 7.62 53.53 7.77L53.53 7.77L53.53 7.77Q53.17 7.93 52.89 8.20L52.89 8.20L52.89 8.20Q52.60 8.47 52.37 8.83L52.37 8.83L52.37 8.83Q52.14 9.19 51.91 9.61L51.91 9.61L51.91 13.64L50.61 13.64ZM60.44 12.56L60.44 12.56L60.44 12.56Q60.27 12.71 60.03 12.92L60.03 12.92L60.03 12.92Q59.79 13.13 59.48 13.32L59.48 13.32L59.48 13.32Q59.18 13.51 58.82 13.64L58.82 13.64L58.82 13.64Q58.46 13.78 58.06 13.78L58.06 13.78L58.06 13.78Q57.70 13.78 57.35 13.65L57.35 13.65L57.35 13.65Q57.00 13.53 56.74 13.28L56.74 13.28L56.74 13.28Q56.47 13.03 56.31 12.66L56.31 12.66L56.31 12.66Q56.15 12.29 56.15 11.81L56.15 11.81L56.15 11.81Q56.15 11.52 56.22 11.22L56.22 11.22L56.22 11.22Q56.29 10.92 56.46 10.64L56.46 10.64L56.46 10.64Q56.64 10.36 56.91 10.12L56.91 10.12L56.91 10.12Q57.19 9.88 57.60 9.70L57.60 9.70L57.60 9.70Q58.00 9.52 58.56 9.41L58.56 9.41L58.56 9.41Q59.11 9.31 59.83 9.31L59.83 9.31L60.44 9.31L60.44 8.68L60.44 8.68Q60.44 8.37 60.33 8.11L60.33 8.11L60.33 8.11Q60.22 7.86 60.03 7.68L60.03 7.68L60.03 7.68Q59.83 7.50 59.56 7.40L59.56 7.40L59.56 7.40Q59.29 7.30 58.97 7.30L58.97 7.30L58.97 7.30Q58.72 7.30 58.44 7.36L58.44 7.36L58.44 7.36Q58.17 7.41 57.89 7.51L57.89 7.51L57.89 7.51Q57.61 7.62 57.36 7.75L57.36 7.75L57.36 7.75Q57.11 7.89 56.92 8.05L56.92 8.05L56.79 7.98L56.52 6.99L56.52 6.99Q56.92 6.77 57.29 6.63L57.29 6.63L57.29 6.63Q57.65 6.49 57.99 6.41L57.99 6.41L57.99 6.41Q58.33 6.32 58.64 6.29L58.64 6.29L58.64 6.29Q58.95 6.26 59.23 6.26L59.23 6.26L59.23 6.26Q60.50 6.26 61.12 6.79L61.12 6.79L61.12 6.79Q61.74 7.32 61.74 8.38L61.74 8.38L61.74 11.95L61.74 11.95Q61.74 12.04 61.76 12.16L61.76 12.16L61.76 12.16Q61.77 12.29 61.82 12.41L61.82 12.41L61.82 12.41Q61.87 12.52 61.97 12.61L61.97 12.61L61.97 12.61Q62.07 12.69 62.24 12.69L62.24 12.69L62.24 12.69Q62.34 12.69 62.49 12.66L62.49 12.66L62.49 12.66Q62.65 12.63 62.81 12.55L62.81 12.55L62.81 13.28L62.81 13.28Q62.48 13.50 62.15 13.64L62.15 13.64L62.15 13.64Q61.82 13.78 61.51 13.78L61.51 13.78L61.51 13.78Q61.23 13.78 61.05 13.67L61.05 13.67L61.05 13.67Q60.87 13.56 60.75 13.38L60.75 13.38L60.75 13.38Q60.63 13.20 60.56 12.98L60.56 12.98L60.56 12.98Q60.49 12.77 60.44 12.56ZM60.44 11.69L60.44 10.10L59.92 10.10L59.92 10.10Q59.12 10.10 58.65 10.22L58.65 10.22L58.65 10.22Q58.17 10.33 57.92 10.52L57.92 10.52L57.92 10.52Q57.67 10.71 57.60 10.95L57.60 10.95L57.60 10.95Q57.52 11.20 57.52 11.46L57.52 11.46L57.52 11.46Q57.52 11.75 57.60 11.98L57.60 11.98L57.60 11.98Q57.68 12.20 57.83 12.36L57.83 12.36L57.83 12.36Q57.98 12.52 58.18 12.61L58.18 12.61L58.18 12.61Q58.39 12.69 58.63 12.69L58.63 12.69L58.63 12.69Q58.81 12.69 59.00 12.64L59.00 12.64L59.00 12.64Q59.20 12.60 59.42 12.49L59.42 12.49L59.42 12.49Q59.64 12.37 59.89 12.18L59.89 12.18L59.89 12.18Q60.14 11.99 60.44 11.69L60.44 11.69ZM64.89 11.83L64.89 7.44L63.42 7.44L63.53 6.77L63.53 6.77Q64.07 6.66 64.39 6.49L64.39 6.49L64.39 6.49Q64.71 6.32 64.92 6.07L64.92 6.07L64.92 6.07Q65.13 5.82 65.27 5.46L65.27 5.46L65.27 5.46Q65.41 5.10 65.58 4.60L65.58 4.60L66.19 4.60L66.19 6.40L68.81 6.40L68.54 7.44L66.19 7.44L66.19 11.48L66.19 11.48Q66.19 11.81 66.28 12.04L66.28 12.04L66.28 12.04Q66.38 12.27 66.56 12.41L66.56 12.41L66.56 12.41Q66.74 12.56 66.99 12.62L66.99 12.62L66.99 12.62Q67.25 12.69 67.55 12.69L67.55 12.69L67.55 12.69Q67.87 12.69 68.18 12.63L68.18 12.63L68.18 12.63Q68.49 12.57 68.77 12.47L68.77 12.47L68.77 13.21L68.77 13.21Q68.34 13.49 67.86 13.63L67.86 13.63L67.86 13.63Q67.39 13.78 66.90 13.78L66.90 13.78L66.90 13.78Q66.44 13.78 66.07 13.65L66.07 13.65L66.07 13.65Q65.70 13.52 65.44 13.28L65.44 13.28L65.44 13.28Q65.17 13.03 65.03 12.66L65.03 12.66L65.03 12.66Q64.89 12.30 64.89 11.83L64.89 11.83ZM76.31 12.29L76.31 13.03L76.31 13.03Q76.05 13.21 75.71 13.35L75.71 13.35L75.71 13.35Q75.37 13.49 75.01 13.59L75.01 13.59L75.01 13.59Q74.65 13.69 74.28 13.73L74.28 13.73L74.28 13.73Q73.92 13.78 73.60 13.78L73.60 13.78L73.60 13.78Q72.91 13.78 72.28 13.55L72.28 13.55L72.28 13.55Q71.65 13.32 71.18 12.87L71.18 12.87L71.18 12.87Q70.70 12.41 70.42 11.75L70.42 11.75L70.42 11.75Q70.14 11.08 70.14 10.21L70.14 10.21L70.14 10.21Q70.14 9.32 70.44 8.59L70.44 8.59L70.44 8.59Q70.74 7.85 71.24 7.34L71.24 7.34L71.24 7.34Q71.74 6.82 72.39 6.54L72.39 6.54L72.39 6.54Q73.04 6.26 73.76 6.26L73.76 6.26L73.76 6.26Q74.34 6.26 74.84 6.46L74.84 6.46L74.84 6.46Q75.35 6.65 75.72 7.04L75.72 7.04L75.72 7.04Q76.09 7.43 76.30 8.02L76.30 8.02L76.30 8.02Q76.51 8.60 76.51 9.38L76.51 9.38L76.51 9.38Q76.51 9.54 76.50 9.75L76.50 9.75L76.50 9.75Q76.49 9.97 76.45 10.21L76.45 10.21L71.50 10.21L71.50 10.21Q71.50 10.80 71.71 11.26L71.71 11.26L71.71 11.26Q71.91 11.72 72.29 12.04L72.29 12.04L72.29 12.04Q72.67 12.36 73.20 12.52L73.20 12.52L73.20 12.52Q73.73 12.69 74.36 12.69L74.36 12.69L74.36 12.69Q74.52 12.69 74.74 12.67L74.74 12.67L74.74 12.67Q74.97 12.66 75.23 12.62L75.23 12.62L75.23 12.62Q75.49 12.58 75.77 12.50L75.77 12.50L75.77 12.50Q76.05 12.42 76.31 12.29L76.31 12.29ZM71.50 9.41L75.28 9.41L75.28 9.41Q75.28 8.89 75.14 8.50L75.14 8.50L75.14 8.50Q75.00 8.11 74.75 7.84L74.75 7.84L74.75 7.84Q74.50 7.57 74.18 7.44L74.18 7.44L74.18 7.44Q73.86 7.30 73.49 7.30L73.49 7.30L73.49 7.30Q73.08 7.30 72.71 7.47L72.71 7.47L72.71 7.47Q72.35 7.64 72.08 7.92L72.08 7.92L72.08 7.92Q71.81 8.21 71.65 8.59L71.65 8.59L71.65 8.59Q71.50 8.98 71.50 9.41L71.50 9.41ZM78.09 13.32L78.36 12.22L78.48 12.14L78.48 12.14Q78.74 12.28 79.03 12.40L79.03 12.40L79.03 12.40Q79.32 12.51 79.60 12.58L79.60 12.58L79.60 12.58Q79.88 12.66 80.15 12.70L80.15 12.70L80.15 12.70Q80.42 12.74 80.65 12.74L80.65 12.74L80.65 12.74Q80.97 12.74 81.24 12.67L81.24 12.67L81.24 12.67Q81.50 12.59 81.69 12.46L81.69 12.46L81.69 12.46Q81.88 12.32 81.99 12.13L81.99 12.13L81.99 12.13Q82.09 11.94 82.09 11.70L82.09 11.70L82.09 11.70Q82.09 11.41 81.93 11.21L81.93 11.21L81.93 11.21Q81.76 11.02 81.50 10.88L81.50 10.88L81.50 10.88Q81.23 10.74 80.89 10.64L80.89 10.64L80.89 10.64Q80.55 10.53 80.19 10.42L80.19 10.42L80.19 10.42Q79.84 10.32 79.50 10.18L79.50 10.18L79.50 10.18Q79.15 10.04 78.89 9.83L78.89 9.83L78.89 9.83Q78.62 9.63 78.46 9.33L78.46 9.33L78.46 9.33Q78.29 9.03 78.29 8.60L78.29 8.60L78.29 8.60Q78.29 8.12 78.50 7.69L78.50 7.69L78.50 7.69Q78.72 7.27 79.10 6.95L79.10 6.95L79.10 6.95Q79.48 6.63 80.02 6.45L80.02 6.45L80.02 6.45Q80.55 6.26 81.21 6.26L81.21 6.26L81.21 6.26Q81.37 6.26 81.59 6.28L81.59 6.28L81.59 6.28Q81.81 6.29 82.05 6.32L82.05 6.32L82.05 6.32Q82.30 6.35 82.55 6.40L82.55 6.40L82.55 6.40Q82.81 6.45 83.05 6.53L83.05 6.53L82.78 7.59L82.61 7.69L82.61 7.69Q82.42 7.59 82.19 7.51L82.19 7.51L82.19 7.51Q81.96 7.44 81.73 7.39L81.73 7.39L81.73 7.39Q81.49 7.35 81.27 7.32L81.27 7.32L81.27 7.32Q81.04 7.30 80.87 7.30L80.87 7.30L80.87 7.30Q80.55 7.30 80.30 7.37L80.30 7.37L80.30 7.37Q80.04 7.44 79.86 7.56L79.86 7.56L79.86 7.56Q79.67 7.69 79.57 7.87L79.57 7.87L79.57 7.87Q79.47 8.05 79.47 8.29L79.47 8.29L79.47 8.29Q79.47 8.59 79.63 8.78L79.63 8.78L79.63 8.78Q79.80 8.98 80.07 9.12L80.07 9.12L80.07 9.12Q80.34 9.26 80.69 9.37L80.69 9.37L80.69 9.37Q81.03 9.47 81.40 9.58L81.40 9.58L81.40 9.58Q81.76 9.69 82.10 9.82L82.10 9.82L82.10 9.82Q82.45 9.96 82.72 10.17L82.72 10.17L82.72 10.17Q83.00 10.38 83.16 10.69L83.16 10.69L83.16 10.69Q83.32 10.99 83.32 11.43L83.32 11.43L83.32 11.43Q83.32 11.94 83.09 12.37L83.09 12.37L83.09 12.37Q82.87 12.80 82.47 13.12L82.47 13.12L82.47 13.12Q82.07 13.43 81.53 13.61L81.53 13.61L81.53 13.61Q80.99 13.78 80.38 13.78L80.38 13.78L80.38 13.78Q79.85 13.78 79.25 13.66L79.25 13.66L79.25 13.66Q78.65 13.54 78.09 13.32L78.09 13.32Z"></path></g><!----><g data-v-423bf9ae="" id="8c0627fa-b0c6-4321-bcfd-8a71244b14ec" transform="matrix(1.0005558983152227,0,0,1.0005558983152227,-4.027794915761135,-5.002807286067764)" stroke="none" fill="white"><style></style><path d="M85.2 22c-5.1-6.4-11.8-11.3-19.5-14.1-10.2-3.8-21.1-3.8-31.3 0C26.7 10.8 20 15.6 14.9 22 8.4 30 5 39.7 5 50V51.7C5.4 60 8 68 12.5 74.8c6 9 15 15.5 25.4 18.4C41.9 94.4 46 95 50 95s8.1-.6 12.2-1.7c10.4-2.9 19.4-9.5 25.4-18.5 4.5-6.8 7.1-14.8 7.4-23v-.6V50c0-10.3-3.4-20-9.8-28zm-.3 49.9H68.3l-5.2-7.1c1.1-3.4 5.1-15.8 6.2-19.2l8.3-2.7L91 52.6c-.3 6.9-2.5 13.5-6.1 19.3zm-53.2 0H15.1c-3.6-5.8-5.8-12.4-6.2-19.3l13.4-9.7 8.3 2.7 6.2 19.2-5.1 7.1zm-16-44.7L19.8 40l-11 8c.4-7.5 2.7-14.6 6.9-20.8zm24.6 36.1l-6-18.4L50 33.5l15.6 11.4c-3.5 10.6-5.1 15.8-5.9 18.4H40.3zm39.9-23.2l4.1-12.8c4.1 6.2 6.5 13.3 6.8 20.8l-10.9-8zm1.4-16.6l-5.1 15.8-8.3 2.7-16.3-11.8v-8.7l13.4-9.7c6.3 2.5 11.9 6.5 16.3 11.7zM60.9 10.3L50 18.2l-10.9-7.9c7.2-2 14.6-2 21.8 0zm-26.2 1.5l13.4 9.7v8.7L31.8 42l-8.3-2.7-5.1-15.8c4.4-5.2 10-9.2 16.3-11.7zM17.8 75.7h13.5l4.2 12.8c-7-2.6-13.1-7-17.7-12.8zm22.1 14.2l-5.1-15.8L40 67h20.1l5.2 7.1-5.1 15.8c-6.8 1.7-13.5 1.8-20.3 0zm24.7-1.4l4.1-12.8h13.5c-4.6 5.8-10.7 10.2-17.6 12.8z"></path></g><!----></svg>